<?xml version="1.0" encoding="UTF-8" standalone="no"?>
<!-- Created with Inkscape (http://www.inkscape.org/) -->
<svg xmlns:rdf="http://www.w3.org/1999/02/22-rdf-syntax-ns#" xmlns="http://www.w3.org/2000/svg" height="88.199" width="350" version="1.1" xmlns:cc="http://creativecommons.org/ns#" xmlns:dc="http://purl.org/dc/elements/1.1/" viewBox="0 0 350.00003 88.199344">
 <metadata>
  <rdf:RDF>
   <cc:Work rdf:about="">
    <dc:format>image/svg+xml</dc:format>
    <dc:type rdf:resource="http://purl.org/dc/dcmitype/StillImage"/>
    <dc:title/>
   </cc:Work>
  </rdf:RDF>
 </metadata>
 <g fill="#00539b">
  <g stroke-width=".22624">
   <path d="m158.43 4.462v3.5507h5.7893v18.591h4.2248v-18.592h5.7893v-3.55z"/>
   <path d="m176.36 4.489v22.114h14.977v-3.5507h-10.752v-6.1888h7.5646v-3.55h-7.5646v-5.2678h10.414v-3.5563z"/>
   <path d="m192.96 4.489v22.114h14.977v-3.5507h-10.752v-6.1888h7.5674v-3.55h-7.5674v-5.2678h10.416v-3.5563z"/>
   <path d="m209.38 4.489v22.114h4.2248v-6.6465l3.093-3.8614 5.4842 10.508h4.6853l-7.2872-13.809 6.2775-8.3053h-4.8684l-7.3843 9.8144v-9.8144z"/>
   <path d="m234.4 4.456-6.3691 22.147h4.1943l1.3149-4.774h6.9821l1.2261 4.774h4.1943l-6.26-22.147zm2.6602 4.2636h0.0638l2.4799 9.6146h-5.1457z"/>
   <path d="m245.39 4.489 6.0944 13.296v8.8185h4.2303v-8.819l6.0917-13.296h-4.4079l-3.7976 8.763-3.7976-8.763z"/>
   <path d="m168.17 61.838c-5.6333 0-8.8823 4.1324-8.8823 11.362 0 7.2289 3.249 11.365 8.8823 11.365 4.0406 0 6.922-1.961 8.2387-5.7893l-3.9224-1.043c-1.2533 2.6044-2.4159 3.2761-4.3163 3.2761-3.1854 0-4.7181-2.633-4.6548-7.8088 0-5.176 1.7133-7.8115 4.5299-7.8115 2.0836 0 3.4009 1.3191 4.014 3.1873l3.8281-0.91819c-1.0429-3.9238-3.4912-5.8198-7.7172-5.8198z"/>
   <path d="m186.86 65.388c-3.4614 0-5.0518 2.637-5.0518 7.813-0.0633 5.176 1.561 7.8085 5.0518 7.8085 3.4592 0 5.0518-2.6325 5.0518-7.8085s-1.5927-7.813-5.0518-7.813m0 19.176c-6.0337 0-9.2824-4.1376-9.2824-11.363 0-7.2246 3.2487-11.363 9.2824-11.363 6.0314 0 9.2802 4.1385 9.2802 11.363 0 7.2253-3.2488 11.363-9.2802 11.363"/>
   <path d="m202.86 71.828h3.1243c3.3098 0 4.3211-1.043 4.3211-3.1275 0-2.0805-1.2579-3.1223-3.5858-3.1223h-3.8596zm-4.2238 12.432v-22.113h8.8209c5.0179 0 7.0405 2.9101 7.0744 6.5529 0.0294 2.7297-1.3506 4.9346-4.0451 5.6982l4.8686 9.8616h-4.6831l-4.165-9.0044h-3.6469v9.0044"/>
   <path d="m221.29 71.888h3.3686c3.1854 0 4.079-1.1956 4.079-3.1566 0-1.9583-0.89362-3.154-4.079-3.154h-3.3686zm-4.2261 12.371v-22.111h8.0856c4.7781 0 7.8096 1.9886 7.8096 6.583 0 4.5971-3.0315 6.5848-7.8096 6.5848h-3.8596v8.9433"/>
   <path d="m243.69 65.388c-3.4614 0-5.0541 2.637-5.0541 7.813-0.0611 5.176 1.5588 7.8085 5.0541 7.8085 3.4614 0 5.0518-2.6325 5.0518-7.8085s-1.5904-7.813-5.0518-7.813m0 19.176c-6.0337 0-9.2824-4.1376-9.2824-11.363 0-7.2246 3.2487-11.363 9.2824-11.363 6.0314 0 9.2802 4.1385 9.2802 11.363 0 7.2253-3.2487 11.363-9.2802 11.363"/>
   <path d="m259.47 71.828h3.1266c3.3076 0 4.3188-1.043 4.3188-3.1275 0-2.0805-1.2579-3.1223-3.5836-3.1223h-3.8618zm-4.2261 12.432v-22.113h8.8209c5.0224 0 7.0472 2.9101 7.0744 6.5529 0.0317 2.7297-1.3484 4.9346-4.0406 5.6982l4.8663 9.8616h-4.6831l-4.1672-9.0044h-3.6446v9.0044"/>
   <path d="m279.27 75.988h5.1468l-2.4818-9.615h-0.0633zm-0.0588-13.878h5.269l6.2735 22.145h-4.1921l-1.2239-4.774h-6.9839l-1.3144 4.774h-4.1989"/>
   <path d="m303.56 62.118v3.5498h-5.7939v18.59h-4.2215v-18.59h-5.7894v-3.5498"/>
   <path d="m306.08 84.258h4.2286v-22.113h-4.2286z"/>
   <path d="m321.62 65.388c-3.4637 0-5.0541 2.637-5.0541 7.813-0.0656 5.176 1.5588 7.8085 5.0541 7.8085 3.4569 0 5.0496-2.6325 5.0496-7.8085s-1.5927-7.813-5.0496-7.813m0 19.176c-6.0382 0-9.2847-4.1376-9.2847-11.363 0-7.2246 3.2465-11.363 9.2847-11.363 6.0269 0 9.2779 4.1385 9.2779 11.363 0 7.2253-3.251 11.363-9.2779 11.363"/>
   <path d="m332.84 84.258v-22.114h4.4093l8.6987 15.069h0.0611v-15.069h3.984v22.11h-4.07l-9.0313-15.741h-0.0611v15.741"/>
   <path d="m219.18 33.744v22.111h4.2248v-8.9433h3.8614c4.7781 0 7.8088-1.9883 7.8088-6.5854 0-4.5944-3.0307-6.5827-7.8088-6.5827zm4.2248 3.4286h3.3704c3.1854 0 4.0778 1.1957 4.0778 3.154 0 1.961-0.89236 3.1568-4.0778 3.1568h-3.3704z"/>
   <path d="m202.56 33.744v22.111h4.2248v-8.9433h3.8614c4.7781 0 7.8088-1.9883 7.8088-6.5854 0-4.5944-3.0307-6.5827-7.8088-6.5827zm4.2248 3.4286h3.3704c3.1854 0 4.0778 1.1957 4.0778 3.154 0 1.961-0.89235 3.1568-4.0778 3.1568h-3.3704z"/>
   <path d="m236.64 55.851h4.2286v-22.113h-4.2286z"/>
   <path d="m243.94 33.741v22.114h3.9834v-15.742h0.0611l9.0321 15.742h4.075v-22.114h-3.9834v15.068h-0.0611l-8.69-15.068z"/>
   <path d="m195.3 55.851h4.2286v-22.113h-4.2286z"/>
   <path d="m270.85 33.436c-5.6332 0-8.8823 4.1324-8.8823 11.362 0 7.2289 3.249 11.365 8.8823 11.365 3.358 0 6.0186-0.9935 7.5774-3.5267 0.31685-0.51489-0.0837-7.7371 0.13876-8.3838l-6.6855-0.0057-0.001 3.2455 3.3678 0.01477c0.001 1.1474 0.2222 3.2172-0.5532 3.9934-0.94229 0.94324-2.4368 1.1064-3.8438 1.1064-3.1854 0-4.7181-2.633-4.6547-7.8088 0-5.176 1.7133-7.8115 4.5299-7.8115 2.0836 0 3.4036 1.3191 4.0167 3.1873l3.8253-0.91832c-1.0429-3.9238-3.4911-5.8198-7.7172-5.8198z"/>
   <path d="m177.96 33.738v22.114h3.3343v-9.9024h7.2817v9.9024h3.3316v-22.114h-3.3316v8.8697h-7.2817v-8.8697z"/>
  </g>
  <path stroke-width="1.3934" d="m167.17 55.904q-2.1809 0-4.0029-0.76816-1.7944-0.80016-2.871-2.3365t-1.0766-3.7127l0.0275-0.70413h4.0581l-0.0276 0.5121q0 1.4083 1.0766 2.2404 1.0766 0.83216 3.0091 0.83216 2.0429 0 2.9539-0.60812 0.91101-0.64012 0.91101-1.6963 0-0.92818-0.60734-1.5363-0.57973-0.64012-1.4907-0.99219-0.88341-0.38407-2.457-0.89617-2.2361-0.73616-3.6164-1.4083-1.3803-0.67213-2.3741-1.9844-0.99382-1.3443-0.99382-3.5207 0-3.0086 2.0981-4.5769t5.5764-1.5683q3.2852 0 5.3556 1.6323 2.0981 1.6003 2.0981 4.833v0.38407h-3.9753v-0.28805q0-1.2162-0.96622-1.9204-0.93862-0.70413-2.5674-0.70413-1.7392 0-2.6778 0.54411-0.91101 0.54411-0.91101 1.5043 0 0.73614 0.55214 1.2803 0.55212 0.5121 1.3803 0.86417 0.82819 0.32007 2.3465 0.80016 2.2637 0.70415 3.6992 1.4083 1.4631 0.67212 2.5122 2.0164 1.049 1.3443 1.049 3.5207 0 3.5207-2.1809 5.185-2.1533 1.6643-5.9077 1.6643z"/>
 </g>
 <path stroke-width=".91564" fill="#000000" d="m138.62 88.188v-6.4572h-2.4131v-1.3544h6.3427v1.3544h-2.3463v6.4572zm4.8739 0v-7.8115h2.4703l1.4212 5.3794 1.4307-5.3794h2.4703v7.8115h-1.507v-6.2282l-1.6882 6.2282h-1.4307l-1.6787-6.2282v6.2282z"/>
 <path d="m0 0v32.66h25.034v55.539h46.985l13.039-18.674 11.531 18.674h37.914l-28.18-48.366 28.88-39.832h-39.582l-37.711 47.869 0.34192-15.209h10.46l22.825-32.66z" stroke-width=".35252" fill="#1d4a97"/>
 <path d="m4.17 4.072v24.485h24.904v55.412h40.769l15.196-21.724 13.649 21.724h28.674l-25.92-44.29 25.9-35.606h-29.63l-43.56 56.906v-32.42h12.504l17.2-24.486" stroke-width=".2502" fill="#d31245"/>
</svg>
